<svg viewBox="0 0 140 140" xmlns="http://www.w3.org/2000/svg" role="img" aria-label="Sweet Basil Catering Company logo">
  <defs>
    <linearGradient id="basilGradient" x1="0%" y1="0%" x2="100%" y2="100%">
      <stop offset="0%" stop-color="#4d6a1a" />
      <stop offset="100%" stop-color="#97b93c" />
    </linearGradient>
    <filter id="shadow" x="-20%" y="-20%" width="140%" height="140%">
      <feDropShadow dx="0" dy="4" stdDeviation="5" flood-color="#000000" flood-opacity="0.12" />
    </filter>
  </defs>

  <rect width="140" height="140" rx="28" fill="#ffffff" />
  <rect x="8" y="8" width="124" height="124" rx="24" fill="#f6f7ed" />

  <g filter="url(#shadow)">
    <path d="M70 32c18 0 16 24 16 24s10-8 18-6c0 0-4 12-18 24c16 0 22 14 16 28c-3 6-10 12-16 12c0 0 4-10 0-18c-6-10-22-8-22-8s10-8 10-16c0-14-14-20-14-20s10-2 12-8c0 0-8-10-8-14s10-4 14-4Z" fill="url(#basilGradient)" />
    <path d="M74 30c0 12 6 26 18 26" fill="none" stroke="#ffffff" stroke-width="3" stroke-linecap="round" opacity="0.55" />
  </g>

  <text x="70" y="100" text-anchor="middle" font-family="Georgia, serif" font-size="16" fill="#34421b" font-weight="700">Sweet Basil</text>
  <text x="70" y="118" text-anchor="middle" font-family="Georgia, serif" font-size="9" fill="#6b7a3c" letter-spacing="0.14em">CATERING COMPANY</text>
</svg>
